<svg width="16" height="16" viewBox="0 0 115 101" fill="none" xmlns="http://www.w3.org/2000/svg">
<path opacity="0.66" d="M57.8871 6.17379C59.6772 6.52869 61.5043 6.60738 63.3633 6.41605C65.2222 5.93308 67.1147 5.34827 69.0249 4.78197C70.9332 4.27894 72.8522 4.03668 74.7624 4.12772C76.6495 4.5212 78.505 5.28346 80.3004 6.3605C82.0375 7.63505 83.674 9.05927 85.1746 10.5329C86.5692 11.9278 87.7873 13.2069 88.7954 14.3256C90.506 16.2544 90.852 17.8592 90.679 18.5597C90.7673 19.1677 91.0304 19.9593 91.5405 20.9298C92.4197 22.0285 93.6361 23.2922 95.1984 24.6902C97.1192 26.1885 99.3012 27.7809 101.653 29.4366C104.077 31.1447 106.407 32.8807 108.479 34.6212C110.199 36.3818 111.391 38.127 111.947 39.8413C111.91 41.5649 111.205 43.2499 109.893 44.8916C108.215 46.535 106.229 48.132 104.142 49.6735C102.276 51.2135 100.751 52.6577 99.6966 53.9986C99.2553 55.3334 99.3594 56.5601 99.9473 57.6742C101.01 58.7774 102.309 59.7665 103.676 60.646C105.63 61.9206 107.309 64.1796 106.612 65.3353C105.544 66.2488 104.022 67.2703 102.138 68.4492C100.007 69.8472 97.6911 71.4596 95.292 73.3005C92.8928 75.3481 90.559 77.5716 88.347 79.9062C86.2938 82.247 84.419 84.5014 82.7225 86.532C81.2219 88.234 79.8731 89.4838 78.648 90.1844C77.5675 90.3742 76.5525 90.0054 75.5656 89.1552C74.6529 88.0812 73.7155 86.8699 72.7269 85.7543C71.7594 85.0553 70.7108 84.8686 69.5668 85.33C68.4193 86.5258 67.1677 88.325 65.8101 90.547C64.4437 92.9541 62.9731 95.1931 61.4055 96.9275C59.829 97.9489 58.1607 98.0338 56.4059 97.1435C54.6494 95.5017 52.854 93.3291 51.0303 90.9914C49.212 88.8805 47.3689 87.2542 45.5135 86.3021C43.6704 86.1586 41.8221 86.7064 39.979 87.7757C38.1589 89.2292 36.3582 90.6998 34.5911 91.9234C32.861 92.789 31.1839 93.0375 29.5739 92.6178C28.0221 91.5993 26.5568 89.9961 25.1957 87.9578C23.9052 85.6494 22.7277 83.2268 21.672 80.8506C20.6816 78.6394 19.8042 76.6905 19.0363 75.0487C17.9682 73.2557 16.1164 71.3578 15.2125 70.8748C14.1621 70.5138 11.7382 69.2562 10.3789 68.2085C9.40084 67.386 8.4493 66.4031 7.55425 65.2782C6.68391 64.0994 5.93009 62.8063 5.32986 61.4237C4.83203 60.0134 4.52132 58.5398 4.41187 57.0199C4.4154 55.4938 4.60253 53.9369 4.95384 52.3569C5.34575 50.7752 5.82594 49.2106 6.35555 47.6599C6.81985 46.1029 7.27532 44.5506 7.70607 42.9953C8.02031 41.4198 8.30277 39.8259 8.56404 38.2057C8.73705 36.5531 8.93124 34.8619 9.17134 33.1291C9.40437 31.3685 9.74155 29.5739 10.2023 27.7578C10.7337 25.9493 11.4257 24.1563 12.2802 22.4173C13.2388 20.7586 14.3563 19.214 15.615 17.8283C16.9602 16.6032 18.4166 15.5879 19.9596 14.8071C21.5361 14.1976 23.162 13.801 24.8162 13.5912C26.4562 13.4353 28.098 13.352 29.7327 13.2671C31.3234 13.031 32.8998 12.6592 34.4622 12.099C35.9716 11.2674 37.4775 10.2335 38.9816 9.03458C40.4433 7.69985 41.9192 6.36667 43.4198 5.1523C44.8886 4.11384 46.3962 3.39015 47.9497 3.04914C49.4856 3.0368 51.0762 3.38861 52.7304 4.03051C54.3775 4.75728 56.0952 5.51646 57.8853 6.17225" stroke="url(#paint0_linear_304_217)" stroke-width="2" stroke-linecap="round"/>
<path opacity="0.54" d="M62.2113 8.21457C63.9241 8.67918 65.6774 8.88332 67.4637 8.83118C69.2749 8.49439 71.1041 8.04424 72.9301 7.58926C74.7463 7.16771 76.529 6.96375 78.2545 7.0517C79.926 7.41476 81.5089 8.12814 82.9816 9.15491C84.3748 10.398 85.6311 11.8244 86.7352 13.3389C87.7423 14.8273 88.578 16.2463 89.2279 17.5332C90.2501 20.0172 90.4641 21.9687 90.5386 22.5363C90.8341 22.997 91.3136 23.6113 92.0381 24.3908C93.0927 25.2912 94.4358 26.3672 96.0598 27.6013C97.9597 28.9484 100.037 30.4224 102.201 31.9868C104.362 33.6192 106.375 35.295 108.097 36.9838C109.459 38.6828 110.308 40.3578 110.564 41.9824C110.284 43.5878 109.403 45.1314 107.987 46.6017C106.252 48.0584 104.251 49.4524 102.165 50.7839C100.281 52.1278 98.7028 53.3932 97.5496 54.5889C96.9479 55.8156 96.8454 56.974 97.1998 58.0633C98.0066 59.1835 99.067 60.2312 100.235 61.2129C101.471 62.2219 102.533 63.1755 103.301 64.0938C103.784 65.0702 103.812 66.0543 103.366 67.0863C102.519 68.2344 101.221 69.4908 99.5384 70.8889C97.5699 72.4504 95.3545 74.1761 92.9829 76.0608C90.5371 78.0537 88.0812 80.1266 85.682 82.1998C83.386 84.1788 81.2338 85.9764 79.2487 87.4797C77.4518 88.6264 75.8331 89.3184 74.3831 89.5012C73.1068 89.2631 71.9513 88.5822 70.8805 87.554C69.9051 86.4403 68.9394 85.3165 67.9441 84.3826C66.9485 83.9128 65.8636 83.9572 64.6648 84.6009C63.4241 85.8933 62.0621 87.6809 60.5877 89.7849C59.1018 91.9888 57.5451 93.9732 55.9375 95.4487C54.3824 96.2515 52.809 96.1868 51.2266 95.226C49.6998 93.5771 48.1744 91.4287 46.6388 89.1002C45.0929 86.9428 43.4969 85.186 41.845 84.012C40.1484 83.567 38.4011 83.77 36.6274 84.4974C34.8438 85.6542 33.0797 86.9205 31.3714 88.0649C29.7205 88.9808 28.1692 89.4094 26.7403 89.264C25.4115 88.5818 24.2172 87.3293 23.1636 85.606C22.1975 83.5447 21.3554 81.2637 20.6303 78.9141C19.9463 76.6026 19.3474 74.4433 18.8224 72.5082C18.2796 70.8365 17.7748 69.441 17.2919 68.299C16.4553 67.0656 14.538 65.4529 13.4158 64.754C12.5519 64.297 11.6698 63.7367 10.7886 63.0558C9.85532 62.3408 8.97008 61.491 8.16257 60.5115C7.38987 59.4955 6.75014 58.367 6.2742 57.1388C5.90592 55.8924 5.72963 54.5698 5.75679 53.1824C5.89892 51.7959 6.22237 50.3556 6.70891 48.8681C7.23935 47.3849 7.85417 45.8868 8.51942 44.3779C9.12328 42.8621 9.72184 41.3244 10.2942 39.7602C10.7528 38.1813 11.1804 36.568 11.5808 34.9206C11.889 33.2535 12.2084 31.5562 12.5634 29.8348C12.8972 28.1136 13.3161 26.3899 13.841 24.6898C14.4206 23.0364 15.1401 21.4473 16.0019 19.9598C16.9535 18.5862 18.0502 17.3669 19.2752 16.3334C20.5794 15.4595 21.987 14.7946 23.478 14.3452C25.0117 14.0253 26.5974 13.8726 28.2189 13.8459C29.8463 13.8118 31.4923 13.7896 33.1497 13.7125C34.7956 13.449 36.4475 13.0251 38.1058 12.4112C39.7437 11.5471 41.3899 10.5133 43.0406 9.35916C44.6612 8.11651 46.2848 6.9251 47.9067 5.88671C49.4878 5.04537 51.066 4.52559 52.6477 4.37882C54.187 4.53727 55.7433 5.03244 57.3244 5.79056C58.8967 6.61312 60.52 7.46202 62.2097 8.21292" stroke="url(#paint1_linear_304_217)" stroke-width="2" stroke-linecap="round" stroke-dasharray="6 5"/>
<path opacity="0.21" d="M65.831 10.5197C67.4457 11.0848 69.1002 11.4038 70.789 11.4794C72.519 11.2795 74.2546 10.9571 75.9714 10.6076C77.674 10.2578 79.3069 10.0848 80.8406 10.1598C82.3035 10.4737 83.6323 11.1077 84.8087 12.0439C85.8881 13.2033 86.8045 14.5654 87.5515 16.0483C88.2143 17.555 88.7156 19.0354 89.0586 20.4261C89.4388 22.1908 89.6442 24.6148 89.6343 25.3788C89.8261 25.9325 91.0542 27.2195 92.3364 28.1734C93.5545 28.9511 95.0075 29.8966 96.6704 30.9991C98.5321 32.2057 100.492 33.546 102.46 34.9872C104.368 36.4864 106.079 38.0375 107.475 39.6024C108.51 41.1631 109.057 42.6913 109.054 44.1606C108.571 45.589 107.552 46.9432 106.059 48.2167C104.299 49.4632 102.305 50.6482 100.24 51.7821C98.3546 52.9383 96.7441 54.0492 95.5116 55.1275C94.7668 56.2663 94.476 57.3866 94.6032 58.4918C95.1552 59.6606 95.9632 60.8113 96.9028 61.9425C97.9444 63.1268 98.8723 64.2971 99.574 65.4657C100.053 66.6909 100.144 67.9412 99.81 69.2386C99.1145 70.6219 97.9873 72.0842 96.4714 73.6448C94.6577 75.293 92.5638 77.0312 90.2685 78.8348C87.8578 80.6459 85.3849 82.4337 82.9232 84.12C80.5289 85.6323 78.248 86.8969 76.1251 87.8257C74.1763 88.4068 72.4158 88.564 70.8442 88.2832C69.4447 87.6888 68.194 86.7715 67.0491 85.6413C65.989 84.5497 64.9494 83.5511 63.8816 82.8139C62.7851 82.5609 61.5887 82.8021 60.27 83.5876C58.8809 84.927 57.3725 86.6615 55.7661 88.6145C54.1565 90.5982 52.519 92.326 50.8884 93.5497C49.3593 94.1486 47.8848 93.95 46.472 92.9331C45.1601 91.2944 43.8955 89.1894 42.6418 86.8955C41.3751 84.7263 40.0441 82.8764 38.6354 81.5265C37.1345 80.8213 35.5475 80.7116 33.9044 81.1124C32.2125 81.967 30.5298 83.0065 28.9018 84.028C27.3306 84.9411 25.8841 85.4925 24.5932 85.5802C23.4239 85.2153 22.4293 84.3236 21.6108 82.9627C20.8955 81.2298 20.3255 79.2062 19.8784 77.0187C19.4677 74.7609 19.129 72.5432 18.8408 70.4533C18.508 68.5278 18.181 66.8196 17.8412 65.3327C17.4008 64.0702 16.9206 62.9976 16.3929 62.0749C15.7438 61.3071 15.0458 60.6095 14.3083 59.9352C13.4684 59.3213 12.6154 58.6668 11.7718 57.9434C10.8902 57.2231 10.0668 56.4087 9.33811 55.4938C8.65211 54.5687 8.11207 53.5463 7.7452 52.4348C7.48568 51.321 7.42607 50.1291 7.57186 48.8692C7.82901 47.6153 8.26909 46.3 8.87764 44.9246C9.52639 43.5541 10.264 42.1526 11.053 40.72C11.7858 39.2821 12.5178 37.805 13.2306 36.2929C13.8298 34.7666 14.3994 33.2025 14.9404 31.6067C15.3822 30.0063 15.8254 28.3859 16.2879 26.7679C16.713 25.1718 17.2025 23.607 17.7735 22.1006C18.3735 20.668 19.0885 19.34 19.9189 18.1464C20.8179 17.0797 21.8403 16.1858 22.9756 15.4866C24.1792 14.9268 25.4816 14.5601 26.8633 14.3747C28.2977 14.2706 29.7955 14.2819 31.3439 14.3649C32.9253 14.3881 34.5504 14.3731 36.2098 14.2674C37.8949 13.959 39.6104 13.4862 41.3549 12.8345C43.1079 11.9658 44.8785 10.9667 46.6555 9.89522C48.4103 8.78511 50.1507 7.76361 51.8668 6.92456C53.5272 6.29678 55.1484 5.98677 56.7298 6.03182C58.2553 6.35515 59.7579 6.98421 61.2528 7.84765C62.7364 8.75801 64.2566 9.68537 65.8275 10.5193" stroke="url(#paint2_linear_304_217)" stroke-width="2" stroke-linecap="round" stroke-dasharray="10 3"/>
<path opacity="0.7" d="M68.6496 12.9768C70.1508 13.6279 71.6869 14.0488 73.2514 14.2367C74.8765 14.1629 76.5 13.9563 78.0868 13.7002C79.6655 13.4189 81.1505 13.2684 82.5084 13.3197C83.7844 13.5718 84.8949 14.1085 85.8214 14.9232C86.6433 15.9581 87.2827 17.2065 87.7439 18.5999C88.1309 20.0597 88.3674 21.5372 88.4724 22.9694C88.5665 24.2985 88.5761 25.5014 88.5272 26.5606C88.5596 27.8324 89.0214 29.6567 89.6555 30.4196C90.3639 30.9172 91.2599 31.4957 92.3572 32.1814C93.7007 32.9307 95.2234 33.8179 96.8923 34.8445C98.6909 35.9459 100.519 37.1697 102.29 38.4854C103.958 39.8352 105.39 41.2294 106.493 42.6327C107.246 44.0067 107.537 45.3458 107.322 46.6219C106.683 47.8369 105.566 48.9798 104.033 50.0447C102.274 51.0749 100.312 52.0576 98.2816 53.0085C96.415 53.9917 94.785 54.9673 93.4827 55.9539C92.6111 57.0244 92.1359 58.1284 92.0382 59.2684C92.3295 60.5004 92.8658 61.7643 93.5464 63.0583C94.3505 64.4229 95.0864 65.8078 95.6519 67.2175C96.0535 68.677 96.1288 70.1636 95.8348 71.6835C95.2313 73.2431 94.2305 74.8402 92.8603 76.4706C91.2098 78.1099 89.2733 79.7523 87.1192 81.3618C84.8355 82.8886 82.4634 84.2977 80.0783 85.5245C77.7342 86.5255 75.4824 87.2391 73.3747 87.6089C71.4143 87.6655 69.6344 87.3551 68.0385 86.6925C66.5916 85.8276 65.2848 84.76 64.0785 83.5993C62.9241 82.573 61.779 81.722 60.5946 81.1778C59.3453 81.1106 57.9892 81.5078 56.5111 82.3793C54.9432 83.7122 53.273 85.3509 51.5304 87.1229C49.8035 88.8678 48.0959 90.3354 46.4557 91.3153C44.9568 91.7205 43.5797 91.4021 42.3299 90.3452C41.2185 88.732 40.1948 86.6886 39.2144 84.4545C38.2177 82.3009 37.1605 80.4012 36.0117 78.9183C34.7396 77.9961 33.3584 77.6138 31.8924 77.7158C30.3377 78.2746 28.7715 79.0712 27.2478 79.9373C25.7582 80.7972 24.3981 81.4162 23.2058 81.6832C22.1394 81.592 21.2692 81.0404 20.5986 80.0512C20.0461 78.6913 19.6601 76.9996 19.4117 75.078C19.2054 73.0003 19.0744 70.8656 18.9869 68.7596C18.8489 66.7199 18.6976 64.815 18.5145 63.0762C18.2159 61.4987 17.855 60.0943 17.4296 58.8418C16.871 57.7348 16.2508 56.7314 15.5825 55.7916C14.8138 54.9371 14.0297 54.094 13.2586 53.2343C12.4541 52.4078 11.7186 51.5359 11.0803 50.6065C10.4912 49.6894 10.0531 48.7092 9.79165 47.6643C9.63694 46.6331 9.68163 45.5398 9.93226 44.3874C10.2872 43.2515 10.828 42.0573 11.537 40.8031C12.2853 39.5579 13.126 38.2748 14.0215 36.9593C14.865 35.6357 15.7128 34.2719 16.5443 32.8718C17.2687 31.4596 17.9631 30.0148 18.6221 28.5524C19.1801 27.09 19.7269 25.6286 20.2734 24.1909C20.7673 22.7906 21.2997 21.4464 21.8844 20.191C22.4723 19.0183 23.1464 17.9722 23.9077 17.0782C24.7139 16.3031 25.6218 15.7018 26.6237 15.2838C27.6872 14.9753 28.8451 14.8264 30.0851 14.8209C31.3901 14.8449 32.7736 14.9388 34.2256 15.0552C35.7433 15.0733 37.3299 15.0239 38.9773 14.8597C40.6857 14.4985 42.4481 13.9834 44.2561 13.3127C46.0969 12.4714 47.9591 11.5426 49.8264 10.5863C51.6738 9.63736 53.4894 8.81027 55.2536 8.18502C56.95 7.77744 58.5749 7.67526 60.1251 7.90627C61.6052 8.38609 63.0328 9.13855 64.4248 10.0943C65.8077 11.0798 67.2068 12.0731 68.6461 12.9762" stroke="url(#paint3_linear_304_217)" stroke-width="2" stroke-linecap="round" stroke-dasharray="1 5"/>
<path opacity="0.82" d="M70.6461 15.4629C72.0182 16.1863 73.4218 16.6928 74.8493 16.9773C76.3551 17.0148 77.8522 16.9121 79.3077 16.7409C80.7626 16.5214 82.111 16.3906 83.3178 16.4151C84.4431 16.6021 85.3851 17.0319 86.1288 17.7103C86.7637 18.6004 87.2049 19.7034 87.4663 20.9664C87.6602 22.3329 87.7155 23.7574 87.6606 25.1813C87.6188 26.5604 87.5294 27.8615 87.4234 29.0572C87.4492 30.6092 88.1531 33.0655 88.992 34.1166C89.8383 34.7792 90.8611 35.4864 92.0581 36.2667C93.463 37.074 94.9978 37.9832 96.6223 38.9987C98.3206 40.0522 99.9945 41.1958 101.561 42.4087C102.995 43.6217 104.171 44.8627 105.014 46.0978C105.528 47.2788 105.609 48.4172 105.227 49.4917C104.475 50.4886 103.301 51.4186 101.758 52.2823C100.026 53.1033 98.114 53.8978 96.1336 54.6878C94.2973 55.5144 92.6579 56.3731 91.2936 57.2839C90.3043 58.2944 89.6543 59.3845 89.3299 60.557C89.3608 61.8388 89.6142 63.1978 90.0109 64.6237C90.5481 66.1301 91.0495 67.6837 91.4246 69.2743C91.6958 70.9013 91.7018 72.5463 91.4004 74.1986C90.8499 75.8424 89.9529 77.4723 88.7276 79.0673C87.2602 80.5994 85.526 82.0494 83.588 83.382C81.5254 84.5641 79.3685 85.5536 77.1884 86.3027C75.0324 86.8073 72.9505 87.011 70.9889 86.8901C69.143 86.5093 67.4489 85.8312 65.9124 84.8942C64.4774 83.8561 63.1541 82.7193 61.9011 81.5922C60.6511 80.6668 59.3863 79.9689 58.0605 79.5994C56.6384 79.681 55.1022 80.1787 53.4482 81.0819C51.6987 82.3562 49.8711 83.8549 48.0074 85.4183C46.1784 86.9102 44.419 88.1145 42.7824 88.8598C41.3209 89.0825 40.0394 88.6567 38.9426 87.5741C38.01 85.9964 37.2065 84.029 36.4762 81.8744C35.7344 79.7651 34.9429 77.8505 34.0621 76.2828C33.0342 75.1919 31.8816 74.577 30.6232 74.4142C29.2386 74.6932 27.8172 75.2441 26.4148 75.9315C25.0123 76.6913 23.7256 77.318 22.5971 77.7005C21.5808 77.8222 20.7673 77.5648 20.1614 76.9198C19.6814 75.9339 19.3825 74.6067 19.2385 73.0119C19.1492 71.2077 19.1476 69.2666 19.1959 67.2691C19.2046 65.2471 19.2033 63.2772 19.1643 61.3989C19.0139 59.613 18.7945 57.9573 18.5016 56.4292C18.0769 55.0156 17.5847 53.7117 17.0377 52.4952C16.392 51.3661 15.7295 50.2875 15.08 49.2362C14.3999 48.2382 13.7875 47.2413 13.2712 46.2317C12.8062 45.2561 12.4865 44.2578 12.3403 43.2295C12.2949 42.23 12.4441 41.1979 12.7922 40.131C13.2388 39.089 13.8666 38.0046 14.6574 36.8779C15.4872 35.7611 16.4068 34.6172 17.3827 33.4474C18.3114 32.2705 19.2476 31.0601 20.168 29.8249C20.9874 28.5786 21.7725 27.3139 22.5204 26.0446C23.1602 24.78 23.7752 23.5349 24.3725 22.3319C24.9023 21.1664 25.4433 20.0777 26.0087 19.0931C26.8581 17.7949 28.901 16.068 30.1373 15.6711C31.0487 15.5276 32.0496 15.508 33.1388 15.5879C34.309 15.6561 35.5727 15.7529 36.9274 15.8357C38.3734 15.7987 39.9132 15.6779 41.5407 15.4426C43.2515 15.0277 45.0374 14.4808 46.8806 13.8166C48.7684 13.0288 50.6811 12.1991 52.5872 11.3838C54.4733 10.6181 56.3089 9.99861 58.0705 9.5917C59.7535 9.39946 61.338 9.49876 62.8184 9.90102C64.2222 10.5232 65.5491 11.383 66.8195 12.4133C68.084 13.4613 69.3495 14.5063 70.6449 15.461" stroke="url(#paint4_linear_304_217)" stroke-width="2" stroke-linecap="round" stroke-dasharray="2 4"/>
<path opacity="0.99" d="M71.8803 17.8723C73.1117 18.6514 74.3727 19.2262 75.6572 19.5933C77.036 19.7276 78.4036 19.7185 79.7307 19.6225C81.0734 19.4624 82.306 19.354 83.3978 19.3566C84.8285 19.649 86.5603 21.5722 86.878 23.159C86.9654 24.4038 86.9245 25.7389 86.7909 27.1197C86.6815 28.5101 86.5447 29.8718 86.4222 31.1773C86.419 32.4094 86.4933 33.5645 86.6758 34.6459C87.0511 35.6446 87.5761 36.596 88.2616 37.5235C89.1659 38.4095 90.2328 39.3116 91.4462 40.2542C92.8267 41.1931 94.2984 42.1925 95.8131 43.255C97.3651 44.3181 98.849 45.4316 100.194 46.5809C101.392 47.6945 102.325 48.8068 102.931 49.8961C103.238 50.9042 103.146 51.8596 102.633 52.7484C101.807 53.5448 100.604 54.2808 99.0726 54.964C97.3902 55.6002 95.54 56.2285 93.6192 56.8768C91.8228 57.5651 90.1821 58.3166 88.7663 59.1552C87.67 60.1016 86.8552 61.1615 86.3166 62.3381C86.0928 63.6341 86.0684 65.0369 86.1777 66.5337C86.4376 68.1102 86.6888 69.748 86.8575 71.4251C86.9731 73.1212 86.887 74.8182 86.5578 76.4897C86.047 78.1143 85.2536 79.6727 84.1889 81.1339C82.9352 82.4768 81.4543 83.6711 79.799 84.681C78.0398 85.4996 76.1946 86.0802 74.3238 86.391C72.463 86.4634 70.6543 86.2468 68.9384 85.7427C67.2953 85.0433 65.7657 84.1189 64.3454 83.0243C62.9721 81.9118 61.6601 80.7878 60.3753 79.7466C59.0418 78.9462 57.6575 78.4007 56.1907 78.1805C54.5969 78.3651 52.8885 78.9157 51.0707 79.7977C49.159 80.9652 47.1995 82.2866 45.24 83.6213C43.3385 84.8496 41.5525 85.7944 39.9379 86.3143C38.5241 86.366 37.3366 85.8444 36.3784 84.747C35.6058 83.2129 34.998 81.3321 34.4914 79.2735C33.9797 77.2313 33.436 75.3367 32.8121 73.722C32.0284 72.5049 31.1127 71.704 30.0776 71.3119C28.8822 71.332 27.6236 71.6408 26.3569 72.1295C25.0476 72.7509 23.8264 73.3282 22.7389 73.7578C21.3284 74.0029 19.67 72.4996 19.3843 70.7652C19.3166 69.2817 19.3565 67.6093 19.4634 65.8137C19.5524 63.922 19.644 62.0064 19.7119 60.1111C19.6903 58.2364 19.6064 56.4337 19.454 54.7225C19.1873 53.0813 18.8542 51.5356 18.4666 50.0791C17.9947 48.6976 17.5002 47.3876 17.0155 46.1351C16.5084 44.9444 16.0603 43.7924 15.7034 42.6698C15.3932 41.5967 15.221 40.54 15.206 39.4944C15.286 38.4909 15.5459 37.4893 15.989 36.4858C16.5248 35.5122 17.227 34.5279 18.0834 33.5258C18.9762 32.5354 19.9524 31.5389 20.9809 30.5346C21.9672 29.5233 22.9585 28.4955 23.9322 27.4604C24.8103 26.4111 25.6511 25.3612 26.445 24.3242C27.1323 23.2858 27.7804 22.2824 28.3925 21.3333C29.1886 19.9961 30.7242 17.8988 31.5398 17.2124C32.4352 16.7522 34.6639 16.494 36.0497 16.5845C37.098 16.6191 38.2574 16.6532 39.5265 16.6503C40.9071 16.5254 42.3991 16.3147 43.9953 15.9994C45.6928 15.5374 47.4724 14.9785 49.3157 14.3398C51.2063 13.6292 53.1152 12.9195 55.0088 12.2641C56.8728 11.688 58.6713 11.2765 60.375 11.0813C61.9886 11.0954 63.4878 11.377 64.8613 11.9305C66.1549 12.6737 67.3569 13.6209 68.4848 14.7087C69.6148 15.8004 70.7368 16.8797 71.8792 17.8703" stroke="url(#paint5_linear_304_217)" stroke-width="2" stroke-linecap="round" stroke-dasharray="4 6"/>
<path opacity="0.78" d="M72.4741 20.1299C73.5583 20.9492 74.6732 21.5775 75.8169 22.0106C77.0645 22.2309 78.3117 22.3054 79.5235 22.2831C81.336 22.1435 84.2553 22.3058 85.2244 22.8599C85.7085 23.4649 86.0054 24.2604 86.1332 25.2262C86.1968 26.3393 86.1417 27.5699 86.0004 28.8816C85.8815 30.2512 85.7476 31.6386 85.6379 33.0203C85.6442 34.3799 85.734 35.7014 85.9397 36.9821C86.3247 38.2116 86.8575 39.4061 87.5416 40.5774C88.4182 41.7058 89.4346 42.8335 90.5715 43.9714C91.8407 45.0817 93.1663 46.2143 94.5032 47.37C95.8455 48.4888 97.0973 49.6178 98.1949 50.7418C99.1448 51.7993 99.8364 52.8246 100.217 53.8C100.337 54.675 100.093 55.4841 99.4742 56.2188C98.5941 56.8522 97.3803 57.4271 95.8792 57.9583C94.2541 58.4407 92.4752 58.9286 90.6182 59.4517C88.8706 60.0178 87.2383 60.6683 85.7824 61.4238C84.5972 62.2925 83.6418 63.294 82.9099 64.4291C82.4595 65.6869 82.179 67.0657 82.0242 68.5464C82.0272 70.1078 82.0424 71.7282 82.0164 73.3797C81.9845 75.0391 81.8116 76.6751 81.4639 78.2559C81.0029 79.7633 80.3298 81.1602 79.4517 82.4138C78.4387 83.5195 77.2515 84.4298 75.9291 85.1176C74.5262 85.6011 73.0544 85.8274 71.5564 85.7811C70.0567 85.5242 68.5836 85.0088 67.1697 84.2544C65.782 83.3664 64.4544 82.3244 63.1832 81.1879C61.8982 80.0967 60.6195 79.0536 59.3161 78.1413C57.9146 77.4831 56.4285 77.0793 54.838 76.9797C53.1003 77.2299 51.247 77.7833 49.2985 78.6004C47.268 79.6255 45.2158 80.7453 43.2018 81.8362C41.2665 82.8006 39.4852 83.4923 37.9113 83.8003C36.5575 83.6922 35.4642 83.086 34.6347 81.9828C34.0016 80.4983 33.563 78.7113 33.2479 76.7597C32.9381 74.8017 32.6167 72.9525 32.2267 71.3268C31.3328 69.5518 28.6403 68.3179 26.9713 68.6375C25.7643 69.0864 24.6075 69.5619 23.5496 69.973C22.1115 70.348 20.272 69.5631 19.877 68.3077C19.7481 67.1486 19.7428 65.7758 19.8256 64.2396C19.9143 62.5603 20.0337 60.7949 20.1553 58.9881C20.2141 57.1413 20.2373 55.311 20.2096 53.5232C20.0946 51.762 19.9265 50.0663 19.7146 48.448C19.4363 46.8798 19.1395 45.3889 18.8516 43.9709C18.549 42.6114 18.3001 41.317 18.1275 40.0848C18.004 38.9075 17.9984 37.7834 18.1342 36.7081C18.3544 35.683 18.7336 34.695 19.274 33.74C19.8982 32.8214 20.6704 31.9238 21.5776 31.0421C22.5177 30.1717 23.5307 29.3215 24.5832 28.4886C25.5998 27.6465 26.615 26.8107 27.6071 25.9861C28.5121 25.1425 29.3721 24.315 30.1779 23.5136C31.2074 22.3195 32.903 20.2268 33.6215 19.3995C34.9977 18.3216 37.6245 17.7173 38.8604 17.7197C39.8228 17.6669 40.9042 17.5933 42.1077 17.4747C43.4338 17.2418 44.8806 16.9363 46.4406 16.5501C48.0998 16.0541 49.8455 15.499 51.6504 14.908C53.496 14.2907 55.3482 13.7132 57.1735 13.2216C58.957 12.8337 60.6602 12.6207 62.2539 12.62C63.7517 12.8169 65.1185 13.2567 66.3527 13.9353C67.5058 14.7749 68.5601 15.7838 69.5351 16.9053C70.5162 18.0225 71.4869 19.1186 72.4725 20.1293" stroke="url(#paint6_linear_304_217)" stroke-width="2" stroke-linecap="round"/>
<path opacity="0.35" d="M72.5914 22.2095C73.5285 23.0515 74.5024 23.7197 75.5094 24.2072C76.6327 24.5024 77.7633 24.6556 78.8744 24.7067C80.5705 24.6545 83.3757 24.8031 84.348 25.2428C84.8507 25.7385 85.1809 26.4072 85.3536 27.2436C85.4628 28.2289 85.4552 29.3519 85.3688 30.5833C85.2918 31.9069 85.1978 33.2907 85.1255 34.7109C85.1463 36.1558 85.2444 37.6019 85.4456 39.0404C85.7989 40.4628 86.2808 41.8652 86.8944 43.2523C87.6632 44.6056 88.5477 45.9466 89.5226 47.2776C90.5968 48.5678 91.7031 49.8449 92.7941 51.1079C93.873 52.309 94.8494 53.4813 95.6692 54.6115C96.5712 56.136 96.6925 58.6583 95.7888 59.6281C94.8613 60.1417 93.6468 60.5938 92.1787 61.0021C90.6158 61.3658 88.9096 61.7374 87.1238 62.1505C85.4297 62.6066 83.8202 63.1534 82.3443 63.8121C81.0961 64.5796 80.0288 65.4864 79.1464 66.5258C78.508 67.6869 78.0193 68.9692 77.6483 70.3472C77.4342 71.8024 77.257 73.3083 77.0744 74.8327C76.9267 76.356 76.6967 77.837 76.3596 79.2379C75.9693 80.556 75.436 81.735 74.7657 82.7427C73.5778 83.917 70.6051 84.8285 68.9595 84.5155C67.8341 84.0511 66.7113 83.3707 65.6069 82.5009C64.4852 81.5582 63.3692 80.5183 62.2489 79.4431C61.0616 78.4537 59.8241 77.5494 58.515 76.7972C57.0689 76.2871 55.5056 76.0163 53.8218 76.0095C51.9813 76.29 50.0315 76.8099 48.0015 77.5286C45.9041 78.3892 43.8133 79.2913 41.7922 80.1387C39.8676 80.8456 38.1255 81.2985 36.6194 81.4103C35.3405 81.1593 34.3448 80.4809 33.6322 79.3783C33.1227 77.949 32.8244 76.2581 32.671 74.4198C32.5309 72.5597 32.3985 70.775 32.2143 69.1658C31.639 67.2833 29.5541 65.5214 28.1231 65.5178C26.4847 65.9388 23.4404 66.8202 22.2443 66.8973C21.3281 66.5032 20.4311 64.2347 20.3571 62.4302C20.3759 61.0057 20.4527 59.4544 20.5594 57.8155C20.6429 56.0938 20.7203 54.3395 20.7757 52.5853C20.7811 50.8146 20.7568 49.0791 20.7071 47.3946C20.6154 45.736 20.5174 44.1463 20.4319 42.6307C20.3439 41.1648 20.3022 39.7768 20.3288 38.4699C20.4008 37.2195 20.5753 36.0469 20.8679 34.9527C21.2369 33.9103 21.7378 32.9368 22.3763 32.0298C23.0877 31.1606 23.9214 30.3436 24.868 29.571C25.8449 28.8144 26.8764 28.1027 27.9309 27.4316C28.9582 26.7495 29.9727 26.0946 30.9578 25.468C32.2932 24.5067 34.5398 22.7229 35.4435 21.9354C36.8179 20.6437 38.7342 19.4422 39.5141 19.2693C40.4738 19.0846 43.0659 18.6547 44.749 18.3107C46.0323 17.9715 47.4374 17.5809 48.9516 17.14C50.5552 16.629 52.2376 16.0973 53.9649 15.5708C55.7186 15.0568 57.4659 14.6152 59.1715 14.2835C60.8217 14.0713 62.3804 14.0368 63.8177 14.2063C65.1548 14.5547 66.3582 15.1206 67.4241 15.8934C68.4143 16.7988 69.3042 17.8446 70.1176 18.9787C70.9433 20.0994 71.758 21.1957 72.5898 22.2088" stroke="url(#paint7_linear_304_217)" stroke-width="2" stroke-linecap="round" stroke-dasharray="6 5"/>
<path opacity="0.2" d="M72.4157 24.1297C73.2094 24.9812 74.0473 25.6765 74.9293 26.2098C75.9334 26.5715 76.9609 26.8001 77.9865 26.9272C79.5869 26.9759 82.3501 27.1874 83.3807 27.5674C84.1489 28.2752 84.8647 30.6832 84.9194 32.3422C84.9201 33.6024 84.8959 34.9548 84.8756 36.3769C84.919 37.858 85.0178 39.3753 85.1957 40.9161C85.4844 42.4652 85.8727 44.0184 86.3617 45.5651C86.9657 47.0914 87.6544 48.5988 88.4052 50.084C89.2218 51.5216 90.0472 52.9238 90.843 54.2805C91.6142 55.5615 92.2823 56.78 92.8009 57.9249C93.2866 59.4388 92.7984 61.8073 91.7339 62.6574C90.7613 63.0892 89.5434 63.4528 88.1097 63.7683C86.6047 64.0408 84.9721 64.3193 83.262 64.6299C81.63 64.9855 80.0581 65.4255 78.5895 65.9682C77.3093 66.617 76.1751 67.3902 75.1917 68.2871C74.4211 69.2998 73.7833 70.4206 73.2573 71.6233C72.8887 72.9003 72.576 74.2155 72.2908 75.5331C72.0731 76.8497 71.826 78.1118 71.5327 79.2789C71.042 80.8371 69.6198 82.8972 68.7037 83.2853C67.6765 83.2066 65.3933 81.7779 64.1679 80.5617C63.2818 79.6791 62.3535 78.7421 61.369 77.8107C60.2709 76.9843 59.0756 76.2576 57.7692 75.6813C56.2999 75.3216 54.6936 75.1655 52.9551 75.2267C51.0655 75.5111 49.0736 75.9744 47.0198 76.5751C44.9168 77.2582 42.8433 77.9466 40.8652 78.5582C38.9992 79.0236 37.3326 79.2596 35.9164 79.1959C34.7322 78.8204 33.8372 78.0827 33.2358 76.9887C32.8338 75.6161 32.6541 74.0231 32.6305 72.301C32.6299 70.5441 32.6537 68.8373 32.6406 67.2652C32.3464 65.3223 30.8329 63.1159 29.6425 62.8009C28.1697 62.925 25.1941 63.4889 23.8987 63.5961C22.804 63.3796 21.4491 61.7449 21.1521 60.3225C21.0423 59.1553 21.0167 57.8429 21.0516 56.418C21.0964 54.8871 21.1703 53.29 21.2578 51.6568C21.3299 49.9785 21.4032 48.3044 21.4766 46.656C21.5378 45.0101 21.6103 43.4178 21.7022 41.891C21.8074 40.4008 21.9598 38.9897 22.171 37.6676C22.4325 36.3972 22.7773 35.2166 23.2189 34.1333C23.7313 33.102 24.3501 32.1606 25.0761 31.3076C25.8683 30.4931 26.7557 29.755 27.7326 29.0864C28.7364 28.4327 29.7713 27.8456 30.8177 27.3177C31.8403 26.7767 32.8419 26.2788 33.8055 25.8221C35.127 25.1104 37.3448 23.8243 38.2365 23.262C39.6122 22.2589 41.5273 21.1341 42.3071 20.8532C43.2661 20.5125 45.8433 19.7082 47.5027 19.1907C48.7531 18.7647 50.1155 18.3111 51.5744 17.8397C53.1029 17.3356 54.6915 16.8465 56.3097 16.3974C57.9324 15.991 59.5328 15.6819 61.075 15.4994C62.5521 15.4416 63.9266 15.5571 65.1751 15.864C66.3226 16.3306 67.3387 16.9875 68.2201 17.8218C69.032 18.7637 69.7514 19.8189 70.4003 20.9427C71.0687 22.0482 71.73 23.126 72.4142 24.1288" stroke="url(#paint8_linear_304_217)" stroke-width="2" stroke-linecap="round"/>
<path opacity="0.09" d="M72.1174 25.9528C73.131 27.1569 75.613 28.6582 77.0276 29.0166C78.544 29.1838 81.3066 29.532 82.4213 29.9082C83.3194 30.5493 84.381 32.727 84.6152 34.263C84.7152 35.4483 84.7754 36.7459 84.8185 38.134C84.8917 39.6009 84.9895 41.1297 85.1309 42.7056C85.3408 44.3122 85.6133 45.9381 85.9498 47.5686C86.3579 49.1897 86.8159 50.7932 87.3093 52.3676C87.8347 53.8936 88.3526 55.3688 88.8277 56.7802C89.2685 58.11 89.6124 59.3544 89.8222 60.503C89.8847 62.0033 88.7884 64.2602 87.5664 65.0239C86.5434 65.4004 85.3216 65.7006 83.923 65.9426C82.4711 66.1465 80.9121 66.3447 79.2848 66.5642C77.724 66.8244 76.209 67.1526 74.7768 67.5646C73.5021 68.076 72.3442 68.6933 71.3188 69.4111C70.4741 70.2395 69.7518 71.1544 69.1407 72.135C68.6787 73.1885 68.2913 74.2652 67.9618 75.3331C67.6005 76.9151 66.9438 79.5506 66.5744 80.4549C65.6178 80.9948 63.6463 79.5614 62.7637 78.4934C62.0609 77.7557 61.275 76.997 60.3912 76.2635C59.3633 75.6385 58.2044 75.1093 56.9056 74.7124C55.4359 74.4948 53.8189 74.4392 52.069 74.5491C50.1813 74.8174 48.2052 75.209 46.1854 75.6836C44.1377 76.194 42.1399 76.6789 40.2538 77.0729C38.491 77.3258 36.9353 77.3691 35.6356 77.1554C34.5597 76.6759 33.7725 75.8953 33.2708 74.8175C32.9682 73.5058 32.8873 72.009 32.9642 70.4029C33.0762 68.7525 33.2229 67.1339 33.3501 65.6139C33.3495 64.2377 33.2445 63.0531 33.0168 62.0846C32.3099 61.076 30.0806 60.2872 28.7163 60.2907C27.2478 60.3997 24.6515 60.26 23.6446 59.821C22.8488 59.0272 21.9541 56.43 21.7902 54.6882C21.7458 53.3797 21.7623 51.9859 21.8256 50.5339C21.9052 49.0236 22.0202 47.4919 22.1625 45.9644C22.3202 44.4238 22.5104 42.9174 22.735 41.464C22.9891 40.0352 23.2948 38.678 23.6583 37.4058C24.0727 36.1799 24.5601 35.0468 25.1269 34.0147C25.7581 33.0336 26.4747 32.1516 27.2753 31.3676C28.1321 30.6237 29.0622 29.9671 30.0573 29.3946C31.0781 28.8385 32.1113 28.3614 33.1435 27.9506C34.6503 27.3433 37.3967 26.313 38.5884 25.8612C40.4759 24.945 42.7267 23.686 43.4181 23.305C44.1703 22.8674 46.0637 21.9493 47.2798 21.4347C48.2099 21.0253 49.2466 20.604 50.3889 20.1664C51.6131 19.6838 52.9284 19.2023 54.3197 18.7295C55.7538 18.2554 57.2236 17.8273 58.7036 17.4652C60.1644 17.1675 61.5866 16.9808 62.9373 16.9283C64.2099 16.9999 65.3771 17.2355 66.4183 17.6468C67.3596 18.195 68.1744 18.909 68.8675 19.7727C69.4982 20.7208 70.0476 21.7603 70.5372 22.8552C71.0516 23.9258 71.5693 24.9717 72.117 25.9507" stroke="url(#paint9_linear_304_217)" stroke-width="2" stroke-linecap="round" stroke-dasharray="6 5"/>
<path opacity="0.71" d="M71.8277 27.7683C72.6594 28.9664 74.8268 30.595 76.1243 31.0718C78.1013 31.4341 79.9519 31.7834 81.5107 32.3371C82.8941 33.19 83.824 34.5443 84.3694 36.415C84.7468 38.732 84.9566 41.4735 85.1487 44.4997C85.441 47.7017 85.8346 50.971 86.2884 54.1595C86.7582 57.1815 87.053 59.9214 86.9651 62.2591C86.5126 64.1737 85.4152 65.5983 83.5919 66.5377C82.5205 66.8714 81.2947 67.1185 79.9324 67.2986C78.5323 67.4485 77.05 67.5757 75.514 67.7056C74.0321 67.8777 72.5955 68.0936 71.2296 68.3703C69.9923 68.7386 68.8577 69.1873 67.8417 69.7141C66.262 71.0698 65.12 72.6355 64.3486 74.2277C63.4419 77.5611 61.24 76.4155 59.2032 74.7504C57.0726 74.0388 54.331 73.7095 51.0355 73.8537C47.2778 74.4179 43.3916 75.1235 39.7968 75.6204C38.1765 75.6917 36.762 75.5755 35.5951 75.2383C34.6446 74.6812 33.969 73.8728 33.5665 72.8196C33.3528 71.5725 33.3529 70.1725 33.5097 68.6783C33.7072 67.1374 33.9511 65.6108 34.1875 64.1514C34.2969 61.5845 33.9627 59.6826 33.123 58.4785C31.6009 57.8871 29.851 57.6391 28.1192 57.4369C26.3096 57.1384 24.8735 56.4348 23.8757 55.2407C23.0958 53.6109 22.7271 51.5111 22.6808 49.0898C22.796 46.436 23.1505 43.703 23.711 41.0704C24.4451 38.5023 25.4263 36.209 26.6756 34.2855C27.3888 33.3936 28.171 32.5997 29.0224 31.9038C29.9213 31.2473 30.8761 30.681 31.8813 30.201C32.9056 29.7371 33.9349 29.3538 34.9529 29.0392C35.9597 28.7123 36.9338 28.438 37.8679 28.2048C39.6112 27.6334 41.1439 27.1688 42.4691 26.7768C43.6433 26.1732 44.7366 25.6146 45.853 25.0775C47.0527 24.3145 48.4844 23.5417 50.2248 22.7351C52.2251 21.7451 54.5662 20.7715 57.1487 19.8882C59.7912 19.0861 62.4033 18.62 64.7666 18.6355C66.7915 19.0963 68.366 20.1743 69.4589 21.816C69.9149 22.7428 70.3028 23.7466 70.6462 24.7963C71.0181 25.8166 71.4034 26.8185 71.8264 27.7673" stroke="url(#paint10_linear_304_217)" stroke-width="2" stroke-linecap="round" stroke-dasharray="10 4"/>
<path opacity="0.58" d="M71.6216 29.6786C72.5824 31.2024 73.8362 32.3592 75.3373 33.1898C77.1885 33.7305 79.0093 34.2452 80.6409 34.9089C82.1574 35.7808 83.293 37.0761 84.0616 38.8263C84.6198 40.9645 84.9317 43.5162 85.1071 46.3615C85.2346 49.3906 85.3181 52.5051 85.3433 55.5437C85.2833 58.4379 85.0178 61.0414 84.4118 63.2278C83.4882 65.0296 82.0597 66.3359 80.0876 67.146C77.8163 67.6607 75.1523 67.8821 72.2644 67.9613C69.5492 68.1886 67.0967 68.5674 65.0434 69.1567C63.4812 70.1172 62.3564 71.2256 61.6286 72.3415C61.0857 74.8154 59.6957 74.2031 57.7445 73.1985C55.6597 72.8682 52.9736 72.7919 49.784 73.0101C46.24 73.4691 42.6385 73.9222 39.3698 74.1051C36.6325 73.8076 34.7833 72.7716 33.9673 70.9116C33.8472 68.4292 34.3386 65.6022 35.0226 62.7954C35.3687 60.261 35.326 58.2231 34.7989 56.7426C33.6034 55.7784 32.0909 55.1562 30.4749 54.6594C28.6695 54.1882 27.1098 53.4737 25.902 52.4169C24.8694 51.0607 24.2557 49.3201 24.0209 47.2948C23.9948 45.0767 24.2959 42.7565 24.8811 40.494C25.6728 38.2831 26.7441 36.2946 28.0825 34.6301C29.6287 33.1351 31.4148 31.9818 33.3869 31.176C35.4335 30.4362 37.443 29.9542 39.3395 29.6456C41.126 29.2059 42.746 28.8352 44.219 28.4877C45.5833 27.9173 46.9063 27.3332 48.2763 26.7159C49.7138 25.8754 51.3532 25.0049 53.2407 24.1159C55.2917 23.0988 57.5757 22.1584 59.9863 21.3806C62.3473 20.7373 64.5938 20.465 66.5411 20.6731C68.1332 21.2684 69.3007 22.4074 70.0429 24.0269C70.6185 25.8234 71.081 27.7781 71.6203 29.6775" stroke="url(#paint11_linear_304_217)" stroke-width="2" stroke-linecap="round" stroke-dasharray="3 11"/>
<path opacity="0.22" d="M71.5118 31.7681C72.2647 33.2586 73.328 34.4782 74.6663 35.4457C76.3676 36.1592 78.1133 36.8445 79.7561 37.6423C81.3427 38.5661 82.6178 39.8319 83.5516 41.4731C84.2614 43.4216 84.6695 45.7356 84.8415 48.3146C84.8634 51.0551 84.717 53.8785 84.4133 56.6257C83.9482 59.2485 83.2485 61.5932 82.2469 63.5327C80.9681 65.1426 79.3019 66.2794 77.244 66.9363C74.9665 67.3509 72.4251 67.4606 69.7601 67.3879C67.2345 67.4504 64.9752 67.5872 63.0928 67.8588C61.0632 68.8276 59.3949 71.1634 59.3434 71.9576C59.3458 72.4091 58.0215 71.9398 56.0123 71.5367C53.9461 71.522 51.3365 71.6413 48.3087 71.8924C45.0436 72.2491 41.7903 72.4893 38.8964 72.4164C36.5308 71.9223 34.9796 70.7959 34.3602 68.9856C34.3844 66.6793 34.9735 64.0719 35.7657 61.4392C36.3096 58.978 36.528 56.8635 36.3043 55.1715C35.4616 53.8926 34.2571 52.9246 32.8586 52.1189C31.1943 51.414 29.6505 50.5952 28.3626 49.568C27.1799 48.3749 26.3843 46.905 25.9814 45.2177C25.7899 43.4039 25.975 41.4986 26.5027 39.6312C27.2441 37.8189 28.2997 36.1818 29.6392 34.8134C31.162 33.5979 32.9197 32.6725 34.8606 32.0444C36.8646 31.4808 38.855 31.1297 40.7735 30.9125C42.6127 30.5774 44.351 30.273 45.9979 29.9528C47.5732 29.42 49.1457 28.8379 50.7748 28.1976C52.4454 27.3562 54.2731 26.4859 56.2741 25.6216C58.337 24.6786 60.5227 23.8569 62.7228 23.2425C64.7807 22.7835 66.6513 22.6982 68.1915 23.0664C69.3795 23.7505 70.1784 24.9046 70.6125 26.4668C70.9198 28.1436 71.1606 29.9665 71.5118 31.7681Z" stroke="url(#paint12_linear_304_217)" stroke-width="2" stroke-linecap="round" stroke-dasharray="8 2"/>
<path opacity="0.65" d="M71.4512 34.0868C72.0158 35.5342 72.8906 36.7951 74.0531 37.8768C75.5721 38.741 77.1893 39.588 78.7698 40.5121C80.3495 41.4989 81.6821 42.7466 82.7093 44.2826C83.5237 46.0351 84.0077 48.083 84.1958 50.3388C84.1718 52.7154 83.8932 55.1519 83.3814 57.5074C82.6644 59.7535 81.6901 61.7442 80.4422 63.3622C78.9519 64.7091 77.1651 65.6266 75.1071 66.1056C72.8854 66.3929 70.5041 66.3867 68.0786 66.1805C65.7606 66.0969 63.7076 66.0339 62.0034 66.0541C59.2177 67.3494 57.9788 69.2997 57.496 69.4619C56.7813 69.6006 55.6538 69.6543 54.053 69.6986C51.9957 69.9146 49.4874 70.1568 46.6674 70.4037C43.7236 70.6616 40.858 70.7272 38.3612 70.46C36.3766 69.8359 35.1234 68.6711 34.6937 66.9388C34.8466 64.818 35.5106 62.4305 36.3812 59.9843C37.0863 57.6334 37.5335 55.5059 37.6045 53.6772C37.1277 52.1651 36.2837 50.9088 35.1938 49.8212C33.7932 48.8738 32.411 47.9043 31.188 46.8398C29.9939 45.717 29.1209 44.4277 28.6131 43.0044C28.2861 41.5261 28.3466 39.9923 28.7739 38.4964C29.4024 37.0699 30.3669 35.7857 31.6374 34.7184C33.0632 33.7901 34.738 33.0974 36.6148 32.6426C38.5443 32.2478 40.5032 32.016 42.4429 31.8788C44.3294 31.643 46.1782 31.4073 47.9926 31.1324C49.7532 30.6719 51.5412 30.1464 53.3839 29.5589C55.2303 28.8056 57.1834 28.0372 59.2227 27.2985C61.2379 26.5196 63.2714 25.8859 65.2216 25.4792C66.9648 25.217 68.4669 25.3088 69.6272 25.8048C70.4572 26.5455 70.9364 27.6826 71.1123 29.1612C71.2017 30.7035 71.2635 32.3867 71.4512 34.0868Z" stroke="url(#paint13_linear_304_217)" stroke-width="2" stroke-linecap="round" stroke-dasharray="1 6"/>
<path opacity="0.39" d="M71.3511 36.6358C71.7461 38.0295 72.436 39.3066 73.4011 40.4692C74.7099 41.4482 76.1475 42.4213 77.5917 43.448C79.0828 44.4863 80.3855 45.7093 81.4267 47.135C82.2871 48.6909 82.8227 50.4583 83.0359 52.3674C83.0207 54.3437 82.7017 56.3492 82.1046 58.2638C81.2891 60.077 80.2026 61.6601 78.8635 62.9175C77.3174 63.9542 75.5353 64.6223 73.5645 64.9092C71.4726 65.0497 69.2894 64.9267 67.1097 64.6094C65.0127 64.4015 63.1619 64.1865 61.614 64.0278C59.7764 64.2249 57.8087 65.1906 57.33 65.7331C56.7697 66.3635 54.3116 67.2683 51.9639 67.6471C49.9233 67.9928 47.5471 68.2863 44.9702 68.4904C42.3699 68.6526 39.9054 68.5773 37.8113 68.1717C36.1971 67.4744 35.2295 66.3169 34.9776 64.6871C35.2413 62.7597 35.9592 60.5961 36.885 58.3493C37.7162 56.1481 38.3631 54.0698 38.703 52.1872C38.5888 50.5352 38.1334 49.0784 37.4182 47.7734C36.3795 46.6199 35.2815 45.5026 34.2579 44.3718C33.1936 43.2628 32.3725 42.0836 31.8567 40.8521C31.4701 39.6292 31.4435 38.3982 31.7764 37.2205C32.2764 36.1294 33.118 35.1628 34.2765 34.3721C35.5617 33.7098 37.1143 33.2334 38.8945 32.9436C40.7176 32.7105 42.6199 32.5962 44.5572 32.5449C46.4571 32.4135 48.3758 32.2676 50.3034 32.0777C52.1838 31.7356 54.1057 31.3308 56.0685 30.8765C57.9966 30.2925 59.9742 29.7094 61.9604 29.1769C63.8526 28.6265 65.6766 28.2264 67.3417 28.0475C68.7659 27.9891 69.9211 28.2413 70.7393 28.8398C71.2647 29.6108 71.4854 30.7094 71.4565 32.0908C71.3789 33.5002 71.2978 35.0448 71.3511 36.6358Z" stroke="url(#paint14_linear_304_217)" stroke-width="2" stroke-linecap="round" stroke-dasharray="5 7"/>
<path opacity="0.16" d="M71.0916 39.3573C71.3367 40.6836 71.8432 41.9502 72.6012 43.148C73.6741 44.1994 74.8855 45.2517 76.1334 46.3356C77.4646 47.398 78.6571 48.5783 79.6368 49.8811C80.4871 51.244 81.0363 52.7341 81.2728 54.2984C81.3 55.8808 81.0128 57.4533 80.4329 58.9238C79.6468 60.2975 78.5898 61.4681 77.2974 62.3614C75.833 63.0791 74.1712 63.4937 72.3667 63.5925C70.4761 63.5832 68.5247 63.3505 66.5915 62.9512C64.7188 62.6426 63.0518 62.323 61.6275 62.0468C59.8302 62.0092 57.4689 62.5646 56.5964 63.028C55.9618 63.4769 55.2145 63.8768 54.2737 64.2216C53.1006 64.6682 51.6354 65.0515 49.8664 65.372C47.8744 65.7491 45.6624 66.0238 43.3562 66.1554C41.1093 66.2188 39.0404 66.0333 37.3356 65.5358C36.0653 64.81 35.3596 63.6964 35.2688 62.1914C35.624 60.4667 36.3807 58.5318 37.3383 56.4999C38.2627 54.4825 39.0704 52.5137 39.6484 50.6598C39.8718 48.9664 39.8041 47.4092 39.4907 45.9802C38.8714 44.6894 38.1482 43.4639 37.4307 42.2817C36.6214 41.1678 35.9712 40.0587 35.5551 38.9636C35.1873 37.425 36.2122 34.825 37.6114 33.918C38.7454 33.48 40.1527 33.1924 41.8089 33.0551C43.4964 32.9696 45.3052 32.9715 47.19 33.0191C49.0476 33.0057 50.9629 32.9781 52.914 32.9116C54.8166 32.7291 56.76 32.4999 58.7205 32.2375C60.6125 31.8813 62.5022 31.5404 64.336 31.2607C66.0294 30.9704 67.5941 30.8232 68.9525 30.8715C70.4843 31.2046 71.7115 33.3879 71.5392 35.189C71.3423 36.4709 71.1541 37.8795 71.0916 39.3573Z" stroke="url(#paint15_linear_304_217)" stroke-width="2" stroke-linecap="round" stroke-dasharray="5 3"/>
<path opacity="0.4" d="M70.5641 42.1411C70.677 43.3869 71.0061 44.6098 71.5493 45.7952C72.3779 46.8693 73.3351 47.9464 74.3427 49.0333C75.4577 50.0809 76.4797 51.1909 77.3353 52.3579C78.1141 53.5311 78.6397 54.7597 78.883 56.0011C78.9634 57.2229 78.7479 58.3999 78.2516 59.4661C77.583 60.4381 76.6582 61.2328 75.5114 61.7949C74.2306 62.2214 72.774 62.403 71.1923 62.336C69.5517 62.1926 67.8553 61.8709 66.1598 61.4138C64.509 61.0356 63.0037 60.6483 61.6672 60.3021C59.8811 60.0995 57.0604 60.3272 55.782 60.686C54.8606 61.0729 53.8258 61.4486 52.6266 61.7952C51.2642 62.2298 49.6861 62.6053 47.9077 62.9032C46.0094 63.2251 43.998 63.4249 41.9851 63.4597C40.0876 63.4227 38.3956 63.1486 37.0507 62.5959C36.0896 61.8756 35.6148 60.8343 35.6626 59.4706C36.0869 57.9509 36.8631 56.2479 37.8343 54.4471C38.8135 52.6429 39.7421 50.8392 40.5146 49.0933C41.0287 47.4511 41.3149 45.8964 41.3901 44.4428C41.2004 43.1059 40.8889 41.8432 40.5408 40.6538C40.0706 39.5525 39.6892 38.5033 39.4641 37.519C39.2676 36.2019 40.2591 34.1826 41.5129 33.5659C42.5111 33.3026 43.7699 33.1705 45.2759 33.1664C46.8084 33.2077 48.4813 33.324 50.2505 33.4773C51.9977 33.5902 53.82 33.6976 55.6855 33.7837C57.4986 33.7839 59.3408 33.7584 61.1706 33.7209C62.9136 33.6135 64.607 33.5335 66.1971 33.5152C68.2671 33.5353 71.0425 34.4021 71.5937 35.3862C71.6805 36.1767 71.5524 37.1689 71.2628 38.3425C70.9868 39.5053 70.7231 40.7842 70.5641 42.1411Z" stroke="url(#paint16_linear_304_217)" stroke-width="2" stroke-linecap="round" stroke-dasharray="5 9"/>
<path opacity="0.49" d="M69.6824 44.8341C69.6789 45.9848 69.8446 47.1325 70.1806 48.2585C70.7646 49.3032 71.4587 50.3485 72.2044 51.3861C73.0715 52.3773 73.8788 53.3873 74.564 54.4041C75.2259 55.3941 75.6849 56.3838 75.9134 57.3411C75.9651 58.675 74.6274 60.7 73.3077 61.233C72.2643 61.4216 71.0589 61.4171 69.7285 61.2216C68.3621 60.9755 66.924 60.5898 65.4561 60.1034C64.018 59.6796 62.6553 59.255 61.3887 58.8671C60.1738 58.629 59.0391 58.4562 57.9645 58.354C56.9063 58.4119 55.8519 58.5248 54.7634 58.6758C53.6199 58.9499 52.376 59.2285 51.0071 59.4901C49.5427 59.8223 47.9383 60.0997 46.2264 60.2977C44.477 60.5052 42.7043 60.5882 40.9973 60.5129C39.4361 60.3779 38.0943 60.034 37.0751 59.4574C36.3831 58.7609 36.1041 57.8092 36.263 56.5989C36.7333 55.2839 37.5089 53.8168 38.4694 52.2584C39.4706 50.6895 40.4698 49.0948 41.3835 47.5209C42.1222 46.0134 42.7 44.5574 43.1162 43.1764C43.3201 41.8845 43.4085 40.665 43.4365 39.5308C43.3073 37.998 43.3831 35.5024 43.822 34.5841C44.5237 33.9274 47.1371 33.3887 49.0412 33.4895C50.4023 33.6347 51.8977 33.8517 53.4879 34.111C55.0602 34.3432 56.702 34.5865 58.3755 34.8288C59.9986 35.009 61.6275 35.1854 63.2171 35.367C64.7153 35.4969 66.1317 35.6598 67.4176 35.8787C69.034 36.235 70.9628 37.5581 71.1975 38.6143C71.1431 39.3964 70.9135 40.3295 70.5554 41.3991C70.2315 42.452 69.9178 43.6042 69.6824 44.8341Z" stroke="url(#paint17_linear_304_217)" stroke-width="2" stroke-linecap="round" stroke-dasharray="7 2"/>
<path opacity="0.77" d="M68.4051 47.2617C68.4205 49.2839 68.9298 51.3125 69.7568 53.2465C71.0681 55.0037 72.0819 56.7092 72.486 58.1927C72.6643 59.4677 72.007 60.3429 70.5864 60.6161C68.928 60.5903 66.7252 60.0112 64.2018 58.9989C61.7507 58.19 59.3664 57.4647 57.065 56.9722C54.7751 56.9743 52.2745 57.1274 49.501 57.2982C46.5521 57.6879 43.3995 57.8115 40.5071 57.4716C38.2083 56.9606 36.9608 55.7307 37.1621 53.7093C38.344 51.4197 40.2891 48.7448 42.3281 46.0169C43.9537 43.4418 45.1465 41.0167 45.9884 38.9149C46.3848 37.1039 46.894 35.6516 47.8194 34.6777C48.7686 34.0253 50.3806 33.8585 52.7092 34.1884C55.0845 34.6495 57.842 35.3428 60.6862 36.124C63.3511 36.7391 65.8714 37.4258 67.8999 38.2526C69.4449 39.0041 70.2596 40.0932 70.2283 41.5949C69.88 43.1148 69.1428 45.0331 68.4051 47.2617Z" stroke="url(#paint18_linear_304_217)" stroke-width="2" stroke-linecap="round" stroke-dasharray="9 4"/>
<path opacity="0.96" d="M66.7464 49.2533C66.5597 51.0528 66.704 52.835 67.0831 54.4928C68.2304 56.6932 68.7045 59.5996 67.3741 59.8384C66.1554 59.6229 64.4225 58.9727 62.2915 57.9891C60.2022 57.1601 57.9803 56.3775 55.6885 55.7598C53.3935 55.501 50.8776 55.351 48.2121 55.2112C45.5298 55.2381 42.8538 55.0529 40.5767 54.5099C38.8492 53.8665 38.0414 52.6979 38.4197 50.9636C39.5558 49.0734 41.3841 46.8983 43.3999 44.6782C45.2122 42.5444 46.7928 40.52 48.1077 38.7754C49.0775 37.2508 50.0429 36.0742 51.2007 35.3558C52.3197 34.891 53.8507 34.879 55.8458 35.3374C57.8691 35.9009 60.1084 36.7212 62.323 37.6718C64.3976 38.5133 66.2486 39.461 67.6114 40.5218C68.6231 41.5042 69.0085 42.7137 68.7245 44.1782C68.2836 45.6194 67.5327 47.3304 66.7464 49.2533Z" stroke="url(#paint19_linear_304_217)" stroke-width="2" stroke-linecap="round" stroke-dasharray="2 10"/>
<path opacity="0.84" d="M64.7699 50.6722C64.4342 52.2188 64.2917 53.7083 64.3059 55.049C64.8648 57.8242 62.2652 58.1563 59.8208 56.9126C58.0755 56.103 56.0975 55.2919 53.9878 54.5714C51.8786 54.0947 49.5912 53.6698 47.2649 53.2472C45.0134 52.9485 42.8959 52.4948 41.2223 51.8017C40.0025 51.0677 39.552 49.9873 40.0439 48.5405C41.0936 47.0148 42.7428 45.3182 44.6243 43.6106C46.4414 41.9513 48.1867 40.3865 49.7542 39.0594C51.0937 37.8819 52.379 37.0106 53.6939 36.54C54.951 36.2494 56.4041 36.361 58.0728 36.8923C59.7567 37.5059 61.4743 38.3788 63.0682 39.3943C64.5643 40.3455 65.7904 41.413 66.5744 42.5651C67.1451 43.6472 67.2115 44.8743 66.772 46.2371C66.2905 47.5667 65.5638 49.0592 64.7699 50.6722Z" stroke="url(#paint20_linear_304_217)" stroke-width="2" stroke-linecap="round" stroke-dasharray="2 6"/>
<path opacity="0.41" d="M62.5844 51.425C62.1541 52.6985 61.8168 53.8778 61.5693 54.8966C61.3809 56.8992 59.0346 56.7498 57.0782 55.6229C55.6606 54.8718 54.0107 54.0694 52.236 53.2938C50.4721 52.6739 48.5987 52.0579 46.7706 51.4353C45.0458 50.9021 43.5147 50.2716 42.3987 49.506C41.6227 48.7384 41.4484 47.7714 41.991 46.6069C42.9185 45.4104 44.3355 44.1474 45.9847 42.9188C47.649 41.7168 49.3445 40.6101 50.9418 39.7031C52.4137 38.8867 53.8232 38.323 55.1703 38.0819C56.4691 37.9577 57.8039 38.1637 59.1571 38.72C60.5181 39.3346 61.7666 40.1811 62.8181 41.1625C63.8164 42.1094 64.5333 43.1636 64.8821 44.2749C65.1284 45.3384 64.9899 46.485 64.4885 47.6881C64.013 48.8675 63.3437 50.1272 62.5844 51.425Z" stroke="url(#paint21_linear_304_217)" stroke-width="2" stroke-linecap="round"/>
<path opacity="0.66" d="M60.3221 51.4927C59.6424 53.4675 59.0044 54.9445 58.2521 55.5701C57.8735 56.0118 56.6788 55.4905 54.473 54.0481C52.2732 52.7986 49.4301 51.2868 46.8177 49.8252C44.5779 48.6041 43.3802 47.0782 44.1683 45.2883C45.9236 43.4819 48.8393 41.7684 51.7222 40.6404C54.4119 39.7132 56.9666 39.6232 59.0727 40.629C61.1822 41.7921 62.4855 43.6126 62.6846 45.5707C62.7632 47.4276 61.8508 49.5004 60.3221 51.4927Z" stroke="url(#paint22_linear_304_217)" stroke-width="2" stroke-linecap="round"/>
<path opacity="0.3" d="M58.1167 50.9143C56.9737 52.8116 54.565 53.588 52.45 52.2083C50.8581 51.1655 48.9959 49.817 47.4583 48.4785C46.1671 47.2807 45.6631 45.9526 46.4564 44.6562C47.7893 43.3822 49.9648 42.3621 52.1899 41.8232C54.3846 41.3819 56.4682 41.5412 58.0014 42.4393C59.531 43.4298 60.2592 44.8853 60.1665 46.4138C60.0914 47.9123 59.337 49.5102 58.1167 50.9143Z" stroke="url(#paint23_linear_304_217)" stroke-width="2" stroke-linecap="round" stroke-dasharray="8 8"/>
<path opacity="0.56" d="M56.0743 49.7983C55.0645 51.6166 53.3904 51.8623 51.3797 50.227C49.3435 48.7739 47.6741 46.4008 48.7192 44.7122C50.6934 43.1197 54.32 42.7107 56.2979 44.0332C58.2562 45.5215 57.957 48.0716 56.0743 49.7983Z" stroke="url(#paint24_linear_304_217)" stroke-width="2" stroke-linecap="round" stroke-dasharray="9 1"/>
<defs>
<linearGradient id="paint0_linear_304_217" x1="5381.15" y1="3.04883" x2="5381.15" y2="9473.85" gradientUnits="userSpaceOnUse">
<stop stop-color="#E21DD1"/>
<stop offset="1" stop-color="#F3A5ED"/>
</linearGradient>
<linearGradient id="paint1_linear_304_217" x1="5179.23" y1="320.857" x2="4616.13" y2="9442.31" gradientUnits="userSpaceOnUse">
<stop stop-color="#E21DD1"/>
<stop offset="1" stop-color="#F3A5ED"/>
</linearGradient>
<linearGradient id="paint2_linear_304_217" x1="4951.75" y1="613.429" x2="3866.34" y2="9360.76" gradientUnits="userSpaceOnUse">
<stop stop-color="#E21DD1"/>
<stop offset="1" stop-color="#F3A5ED"/>
</linearGradient>
<linearGradient id="paint3_linear_304_217" x1="4701.8" y1="879.147" x2="3134.42" y2="9229.63" gradientUnits="userSpaceOnUse">
<stop stop-color="#E21DD1"/>
<stop offset="1" stop-color="#F3A5ED"/>
</linearGradient>
<linearGradient id="paint4_linear_304_217" x1="4432.82" y1="1116.71" x2="2423.7" y2="9049.27" gradientUnits="userSpaceOnUse">
<stop stop-color="#E21DD1"/>
<stop offset="1" stop-color="#F3A5ED"/>
</linearGradient>
<linearGradient id="paint5_linear_304_217" x1="4149.58" y1="1325.5" x2="1738.54" y2="8822.78" gradientUnits="userSpaceOnUse">
<stop stop-color="#E21DD1"/>
<stop offset="1" stop-color="#F3A5ED"/>
</linearGradient>
<linearGradient id="paint6_linear_304_217" x1="3855.98" y1="1505.24" x2="1082.83" y2="8551.77" gradientUnits="userSpaceOnUse">
<stop stop-color="#E21DD1"/>
<stop offset="1" stop-color="#F3A5ED"/>
</linearGradient>
<linearGradient id="paint7_linear_304_217" x1="3548.13" y1="1652.44" x2="453.228" y2="8234.04" gradientUnits="userSpaceOnUse">
<stop stop-color="#E21DD1"/>
<stop offset="1" stop-color="#F3A5ED"/>
</linearGradient>
<linearGradient id="paint8_linear_304_217" x1="3240.18" y1="1771.5" x2="-135.17" y2="7875.43" gradientUnits="userSpaceOnUse">
<stop stop-color="#E21DD1"/>
<stop offset="1" stop-color="#F3A5ED"/>
</linearGradient>
<linearGradient id="paint9_linear_304_217" x1="2931.72" y1="1861.36" x2="-681.214" y2="7476.17" gradientUnits="userSpaceOnUse">
<stop stop-color="#E21DD1"/>
<stop offset="1" stop-color="#F3A5ED"/>
</linearGradient>
<linearGradient id="paint10_linear_304_217" x1="2631.26" y1="1926.92" x2="-1161.79" y2="7025.95" gradientUnits="userSpaceOnUse">
<stop stop-color="#E21DD1"/>
<stop offset="1" stop-color="#F3A5ED"/>
</linearGradient>
<linearGradient id="paint11_linear_304_217" x1="2330.87" y1="1961" x2="-1585.1" y2="6529.69" gradientUnits="userSpaceOnUse">
<stop stop-color="#E21DD1"/>
<stop offset="1" stop-color="#F3A5ED"/>
</linearGradient>
<linearGradient id="paint12_linear_304_217" x1="2039.9" y1="1969.4" x2="-1970.36" y2="6031.48" gradientUnits="userSpaceOnUse">
<stop stop-color="#E21DD1"/>
<stop offset="1" stop-color="#F3A5ED"/>
</linearGradient>
<linearGradient id="paint13_linear_304_217" x1="1759.23" y1="1951.76" x2="-2294.62" y2="5508.06" gradientUnits="userSpaceOnUse">
<stop stop-color="#E21DD1"/>
<stop offset="1" stop-color="#F3A5ED"/>
</linearGradient>
<linearGradient id="paint14_linear_304_217" x1="1491.27" y1="1909" x2="-2552.69" y2="4964.38" gradientUnits="userSpaceOnUse">
<stop stop-color="#E21DD1"/>
<stop offset="1" stop-color="#F3A5ED"/>
</linearGradient>
<linearGradient id="paint15_linear_304_217" x1="1237.64" y1="1842.34" x2="-2679.51" y2="4367.6" gradientUnits="userSpaceOnUse">
<stop stop-color="#E21DD1"/>
<stop offset="1" stop-color="#F3A5ED"/>
</linearGradient>
<linearGradient id="paint16_linear_304_217" x1="1002.1" y1="1751.31" x2="-2835.8" y2="3832.52" gradientUnits="userSpaceOnUse">
<stop stop-color="#E21DD1"/>
<stop offset="1" stop-color="#F3A5ED"/>
</linearGradient>
<linearGradient id="paint17_linear_304_217" x1="780.623" y1="1627.32" x2="-2859.75" y2="3252.84" gradientUnits="userSpaceOnUse">
<stop stop-color="#E21DD1"/>
<stop offset="1" stop-color="#F3A5ED"/>
</linearGradient>
<linearGradient id="paint18_linear_304_217" x1="590.496" y1="1502.71" x2="-2782.16" y2="2703.07" gradientUnits="userSpaceOnUse">
<stop stop-color="#E21DD1"/>
<stop offset="1" stop-color="#F3A5ED"/>
</linearGradient>
<linearGradient id="paint19_linear_304_217" x1="421.618" y1="1353.38" x2="-2656.65" y2="2182.01" gradientUnits="userSpaceOnUse">
<stop stop-color="#E21DD1"/>
<stop offset="1" stop-color="#F3A5ED"/>
</linearGradient>
<linearGradient id="paint20_linear_304_217" x1="267.077" y1="1123.54" x2="-2466.07" y2="1630" gradientUnits="userSpaceOnUse">
<stop stop-color="#E21DD1"/>
<stop offset="1" stop-color="#F3A5ED"/>
</linearGradient>
<linearGradient id="paint21_linear_304_217" x1="160.19" y1="966.426" x2="-2177.43" y2="1207.94" gradientUnits="userSpaceOnUse">
<stop stop-color="#E21DD1"/>
<stop offset="1" stop-color="#F3A5ED"/>
</linearGradient>
<linearGradient id="paint22_linear_304_217" x1="80.2773" y1="832.058" x2="-1796.63" y2="874.039" gradientUnits="userSpaceOnUse">
<stop stop-color="#E21DD1"/>
<stop offset="1" stop-color="#F3A5ED"/>
</linearGradient>
<linearGradient id="paint23_linear_304_217" x1="27.4753" y1="606.602" x2="-1379.94" y2="524.468" gradientUnits="userSpaceOnUse">
<stop stop-color="#E21DD1"/>
<stop offset="1" stop-color="#F3A5ED"/>
</linearGradient>
<linearGradient id="paint24_linear_304_217" x1="2.54032" y1="441.31" x2="-919.078" y2="312.59" gradientUnits="userSpaceOnUse">
<stop stop-color="#E21DD1"/>
<stop offset="1" stop-color="#F3A5ED"/>
</linearGradient>
</defs>
</svg>
